<svg version="1.1" id="icon-doc_download" xmlns="http://www.w3.org/2000/svg" xmlns:xlink="http://www.w3.org/1999/xlink" x="0px" y="0px" width="13px" height="16px" viewBox="0 0 13 16" enable-background="new 0 0 13 16" xml:space="preserve"> <g> <g> <g> <g> <line fill="none" stroke="#231F20" stroke-width="1.2441" stroke-miterlimit="10" x1="0.9" y1="14.9" x2="11.9" y2="14.9"/> </g> </g> </g> <g> <path fill="#231F20" d="M7,12.2V1.1c0-0.3-0.3-0.6-0.6-0.6C6,0.5,5.7,0.8,5.7,1.1v11.1c0,0.3,0.3,0.6,0.6,0.6 C6.7,12.8,7,12.5,7,12.2z"/> <path fill="#231F20" d="M2,9c0-0.2,0.1-0.3,0.2-0.4c0.2-0.2,0.6-0.2,0.9,0l3.3,3.3l3.3-3.3c0.2-0.2,0.6-0.2,0.9,0 c0.2,0.2,0.2,0.6,0,0.9l-3.8,3.8c-0.2,0.2-0.6,0.2-0.9,0L2.2,9.5C2.1,9.4,2,9.2,2,9z"/> </g> </g> </svg>