<svg version="1.1" id="Layer_1" xmlns="http://www.w3.org/2000/svg" xmlns:xlink="http://www.w3.org/1999/xlink" x="0px" y="0px" width="40px" height="40px" viewBox="0 0 40 40" enable-background="new 0 0 40 40" xml:space="preserve"> <g> <g> <g> <path fill="none" stroke="#231f20" stroke-width="1.2014" stroke-linecap="round" stroke-linejoin="round" stroke-miterlimit="10" d=" M8.8,33.1H5.7c-1.5,0-2.7-1.2-2.7-2.7V20.2c0-1.5,1.2-2.7,2.7-2.7h28.6c1.5,0,2.7,1.2,2.7,2.7v10.2c0,1.5-1.2,2.7-2.7,2.7h-3.1" /> </g> <g> <path fill="none" stroke="#231f20" stroke-width="1.2014" stroke-linecap="round" stroke-linejoin="round" stroke-miterlimit="10" d=" M8.8,33.1"/> </g> <g> <path fill="none" stroke="#231f20" stroke-width="1.2014" stroke-linecap="round" stroke-linejoin="round" stroke-miterlimit="10" d=" M31.2,33.1"/> </g> <rect x="8.8" y="25.3" fill="none" stroke="#231f20" stroke-width="1.2014" stroke-linecap="round" stroke-linejoin="round" stroke-miterlimit="10" width="22.4" height="11.8"/> <g> <line fill="none" stroke="#231f20" stroke-width="1.2014" stroke-linecap="round" stroke-linejoin="round" stroke-miterlimit="10" x1="12.8" y1="25.3" x2="27.2" y2="25.3"/> <line fill="none" stroke="#231f20" stroke-width="1.2014" stroke-linecap="round" stroke-linejoin="round" stroke-miterlimit="10" x1="27.2" y1="29.2" x2="12.8" y2="29.2"/> <line fill="none" stroke="#231f20" stroke-width="1.2014" stroke-linecap="round" stroke-linejoin="round" stroke-miterlimit="10" x1="27.2" y1="33.1" x2="12.8" y2="33.1"/> <line fill="none" stroke="#231f20" stroke-width="1.2014" stroke-linecap="round" stroke-linejoin="round" stroke-miterlimit="10" x1="27.2" y1="37" x2="12.8" y2="37"/> </g> <polygon fill="none" stroke="#231f20" stroke-width="1.2014" stroke-linecap="round" stroke-linejoin="round" stroke-miterlimit="10" points=" 31.2,10.4 31.2,17.5 8.8,17.5 8.8,3 23.8,3 		"/> <path fill="none" stroke="#231f20" stroke-width="1.2014" stroke-linecap="round" stroke-linejoin="round" stroke-miterlimit="10" d=" M23.8,3v5.4c0,1.1,0.9,2,2,2h5.4"/> </g> </g> </svg>