<svg version="1.1" id="icon-arrow_right" xmlns="http://www.w3.org/2000/svg" xmlns:xlink="http://www.w3.org/1999/xlink" x="0px" y="0px" width="20px" height="10px" viewBox="0 0 20 10" enable-background="new 0 0 20 10" xml:space="preserve"> <g> <path fill="#231F20" d="M18.2,4.3H1.1C0.7,4.3,0.4,4.6,0.4,5c0,0.4,0.3,0.7,0.7,0.7h17.1c0.4,0,0.7-0.3,0.7-0.7 C18.9,4.6,18.6,4.3,18.2,4.3z"/> <path fill="#231F20" d="M14.9,9.7c-0.2,0-0.3-0.1-0.5-0.2c-0.3-0.3-0.3-0.7,0-0.9L17.9,5l-3.6-3.6c-0.3-0.3-0.3-0.7,0-0.9 c0.3-0.3,0.7-0.3,0.9,0l4,4c0.3,0.3,0.3,0.7,0,0.9l-4,4C15.2,9.6,15,9.7,14.9,9.7z"/> </g> </svg>
