<?xml version="1.0" encoding="UTF-8"?><svg id="a" xmlns="http://www.w3.org/2000/svg" width="361.3" height="40.6" viewBox="0 0 361.3 40.6"><path d="M2.9,3.3V19.5H25.4v2.6H2.9v17.8H0V.7H27.9V3.3H2.9Z" fill="#231f20"/><path d="M69.9,28c-1,2.4-2.3,4.6-4.1,6.5-1.7,1.9-3.8,3.4-6.3,4.5-2.5,1.1-5.2,1.7-8.2,1.7s-5.8-.6-8.2-1.7-4.5-2.6-6.3-4.4c-1.7-1.8-3.1-4-4-6.4-.9-2.4-1.4-5-1.4-7.7h0c0-2.8,.5-5.4,1.4-7.8,1-2.4,2.3-4.6,4.1-6.5,1.7-1.9,3.8-3.4,6.3-4.5,2.5-1.1,5.2-1.7,8.2-1.7s5.7,.6,8.2,1.7c2.5,1.1,4.6,2.6,6.3,4.4,1.7,1.8,3.1,4,4,6.4,.9,2.4,1.4,5,1.4,7.7,0,0,0,0,0,.1,0,2.7-.5,5.3-1.4,7.7Zm-1.6-7.7c0-2.4-.4-4.7-1.3-6.9-.8-2.1-2-4-3.5-5.6-1.5-1.6-3.3-2.8-5.4-3.8-2.1-.9-4.3-1.4-6.8-1.4s-4.7,.5-6.8,1.4c-2.1,.9-3.8,2.2-5.3,3.8-1.5,1.6-2.7,3.4-3.5,5.6-.8,2.1-1.2,4.4-1.2,6.8h0c0,2.5,.4,4.8,1.3,7,.8,2.1,2,4,3.5,5.6,1.5,1.6,3.3,2.8,5.4,3.8,2.1,.9,4.3,1.4,6.8,1.4s4.7-.5,6.8-1.4c2.1-.9,3.8-2.2,5.3-3.8,1.5-1.6,2.7-3.4,3.5-5.6,.8-2.1,1.2-4.4,1.2-6.8h0Z" fill="#231f20"/><path d="M109.2,30.7c-.8,2.1-1.9,4-3.3,5.4-1.4,1.5-3.1,2.6-5.1,3.3-2,.7-4.2,1.1-6.6,1.1s-4.6-.4-6.5-1.1-3.7-1.8-5.2-3.3c-1.5-1.4-2.6-3.2-3.4-5.3s-1.2-4.5-1.2-7.3V.7h2.9V23.3c0,4.7,1.2,8.3,3.5,10.8,2.4,2.5,5.7,3.8,9.9,3.8s3.8-.3,5.4-.9,3-1.5,4.2-2.7c1.2-1.2,2-2.7,2.7-4.5,.6-1.8,.9-3.9,.9-6.2V.7h2.9V23.3c0,2.8-.4,5.3-1.2,7.4Z" fill="#231f20"/><path d="M149.5,39.9L121.6,5V39.9h-2.8V.7h2.8l27.4,34.1V.7h2.8V39.9h-2.2Z" fill="#231f20"/><path d="M193.4,28c-1,2.4-2.5,4.5-4.3,6.2-1.9,1.8-4.1,3.1-6.7,4.1s-5.4,1.5-8.5,1.5h-13.2V.7h13.2c3.1,0,5.9,.5,8.5,1.5,2.6,1,4.8,2.4,6.7,4.1,1.9,1.8,3.3,3.8,4.3,6.2,1,2.4,1.5,4.9,1.5,7.7h0c0,2.9-.5,5.5-1.5,7.8Zm-1.5-7.7c0-2.3-.4-4.5-1.3-6.6-.8-2.1-2-3.9-3.6-5.4-1.5-1.5-3.4-2.8-5.7-3.7-2.2-.9-4.7-1.3-7.5-1.3h-10.3V37.3h10.3c2.8,0,5.2-.4,7.5-1.3,2.2-.9,4.1-2.1,5.7-3.6s2.7-3.3,3.6-5.3c.9-2,1.3-4.2,1.3-6.6h0Z" fill="#231f20"/><path d="M232.8,39.9l-5-11h-23.4l-5,11h-3.1L214.7,.4h2.8l18.5,39.5h-3.2ZM216,3.6l-10.5,22.7h20.9l-10.4-22.7Z" fill="#231f20"/><path d="M250.4,3.3V39.9h-2.9V3.3h-13.8V.7h30.6V3.3h-13.8Z" fill="#231f20"/><path d="M270.7,39.9V.7h2.9V39.9h-2.9Z" fill="#231f20"/><path d="M319.7,28c-1,2.4-2.3,4.6-4.1,6.5-1.7,1.9-3.8,3.4-6.3,4.5-2.5,1.1-5.2,1.7-8.2,1.7s-5.8-.6-8.2-1.7c-2.4-1.1-4.5-2.6-6.3-4.4s-3.1-4-4-6.4c-.9-2.4-1.4-5-1.4-7.7h0c0-2.8,.5-5.4,1.4-7.8,1-2.4,2.3-4.6,4.1-6.5,1.7-1.9,3.8-3.4,6.3-4.5,2.5-1.1,5.2-1.7,8.2-1.7s5.7,.6,8.2,1.7c2.5,1.1,4.6,2.6,6.3,4.4s3.1,4,4,6.4c.9,2.4,1.4,5,1.4,7.7,0,0,0,0,0,.1,0,2.7-.5,5.3-1.4,7.7Zm-1.6-7.7c0-2.4-.4-4.7-1.3-6.9-.9-2.1-2-4-3.5-5.6-1.5-1.6-3.3-2.8-5.4-3.8-2.1-.9-4.3-1.4-6.8-1.4s-4.7,.5-6.8,1.4c-2.1,.9-3.8,2.2-5.3,3.8-1.5,1.6-2.7,3.4-3.5,5.6-.8,2.1-1.2,4.4-1.2,6.8h0c0,2.5,.4,4.8,1.3,7,.8,2.1,2,4,3.5,5.6,1.5,1.6,3.3,2.8,5.4,3.8,2.1,.9,4.3,1.4,6.8,1.4s4.7-.5,6.8-1.4c2.1-.9,3.8-2.2,5.3-3.8,1.5-1.6,2.7-3.4,3.5-5.6,.8-2.1,1.2-4.4,1.2-6.8h0Z" fill="#231f20"/><path d="M359.1,39.9l-27.9-34.9V39.9h-2.8V.7h2.8l27.4,34.1V.7h2.8V39.9h-2.2Z" fill="#231f20"/></svg>