<svg version="1.1" id="icon-phone" xmlns="http://www.w3.org/2000/svg" xmlns:xlink="http://www.w3.org/1999/xlink" x="0px" y="0px"
	 width="33px" height="33px" viewBox="0 0 33 33" enable-background="new 0 0 33 33" xml:space="preserve">
<path fill="none" stroke="#231F20" stroke-width="1.2014" stroke-linecap="round" stroke-linejoin="round" stroke-miterlimit="10" d="
	M3.8,3.6L3.8,3.6c-4.1,4.1-1.6,13.1,5.4,20.2c7.1,7.1,16.1,9.5,20.2,5.4c1.2-1.2,1.8-4,1.8-4c0.1-0.5-0.2-1-0.6-1.1l-7.4-3
	c-0.4-0.2-1,0-1.4,0.3l-2.1,2.1c-0.4,0.4-1,0.5-1.5,0.3c0,0-0.1,0-0.1-0.1c0,0,0,0,0,0c-1.6-0.9-3.3-2.2-5-3.8
	c-1.6-1.6-2.9-3.3-3.8-5c0,0,0,0,0,0c0,0,0-0.1-0.1-0.1c-0.2-0.5-0.1-1.1,0.3-1.5l2.1-2.1c0.3-0.3,0.5-1,0.3-1.4L9,2.4
	C8.8,2,8.3,1.7,7.8,1.8C7.8,1.8,5,2.4,3.8,3.6z"/>
</svg>