<svg version="1.1" id="icon-arrow_right-lg" xmlns="http://www.w3.org/2000/svg" xmlns:xlink="http://www.w3.org/1999/xlink" x="0px" y="0px" width="28px" height="14px" viewBox="0 0 28 14" enable-background="new 0 0 28 14" xml:space="preserve"> <g> <path fill="#231F20" d="M25.4,6.1H1.7C1.2,6.1,0.8,6.5,0.8,7c0,0.5,0.4,0.9,0.9,0.9h23.6c0.5,0,0.9-0.4,0.9-0.9 C26.3,6.5,25.9,6.1,25.4,6.1z"/> <path fill="#231F20" d="M20.7,13.5c-0.2,0-0.5-0.1-0.7-0.3c-0.4-0.4-0.4-1,0-1.3L25,7l-4.9-4.9c-0.4-0.4-0.4-1,0-1.3 c0.4-0.4,1-0.4,1.3,0l5.6,5.6c0.4,0.4,0.4,1,0,1.3l-5.6,5.6C21.2,13.4,20.9,13.5,20.7,13.5z"/> </g> </svg>